name rise38.3101peak57.3503fall81.6963.mot
datacolumns 19
datarows 17
range 9.26830400000000 9.29497100000000
endheader
time	ground_force1_vx	ground_force1_vy	ground_force1_vz	ground_force1_px	ground_force1_py	ground_force1_pz	ground_force2_vx	ground_force2_vy	ground_force2_vz	ground_force2_px	ground_force2_py	ground_force2_pz	ground_torque1_x	ground_torque1_y	ground_torque1_z	ground_torque2_x	ground_torque2_y	ground_torque2_z	
9.26830400000000	-57.55458300000000	843.88430600000004	55.52969800000000	0.12991400000000	0.00000000000000	0.08232200000000	-3.64610600000000	15.12968800000000	2.97275600000000	0.00000000000000	0.00000000000000	0.00000000000000	0.00000000000000	23.73263900000000	0.00000000000000	0.00000000000000	0.86392400000000	0.00000000000000	
9.26997300000000	-57.70818400000000	842.36476200000004	55.41875900000000	0.12928500000000	0.00000000000000	0.08229700000000	-4.63340200000000	20.01571000000000	3.83248200000000	0.00000000000000	0.00000000000000	0.00000000000000	0.00000000000000	23.60281000000000	0.00000000000000	0.00000000000000	1.12729900000000	0.00000000000000	
9.27163200000000	-57.85525100000000	840.66279899999995	55.27839000000000	0.12866500000000	0.00000000000000	0.08226800000000	-5.64343000000000	25.29554600000000	4.73085000000000	0.38061800000000	0.00000000000000	-0.09215600000000	0.00000000000000	23.46737500000000	0.00000000000000	0.00000000000000	2.68734300000000	0.00000000000000	
9.27330100000000	-57.99660500000000	838.77786200000003	55.10816200000000	0.12805500000000	0.00000000000000	0.08223400000000	-6.64016700000000	30.85246300000000	5.64039800000000	0.38264000000000	0.00000000000000	-0.09279100000000	0.00000000000000	23.32655800000000	0.00000000000000	0.00000000000000	3.23688600000000	0.00000000000000	
9.27496900000000	-58.13307200000000	836.70962199999997	54.90770600000000	0.12745400000000	0.00000000000000	0.08219700000000	-7.58800600000000	36.56520600000000	6.53349900000000	0.38458100000000	0.00000000000000	-0.09339000000000	0.00000000000000	23.18058900000000	0.00000000000000	0.00000000000000	3.78763200000000	0.00000000000000	
9.27663600000000	-58.26547200000000	834.45797000000005	54.67671800000000	0.12686300000000	0.00000000000000	0.08215500000000	-8.45432800000000	42.31793400000000	7.38440800000000	0.38645300000000	0.00000000000000	-0.09395700000000	0.00000000000000	23.02970700000000	0.00000000000000	0.00000000000000	4.32529500000000	0.00000000000000	
9.27830500000000	-58.39461900000000	832.02301100000000	54.41495800000000	0.12628300000000	0.00000000000000	0.08210800000000	-9.21162500000000	48.00888700000000	8.17099000000000	0.38826400000000	0.00000000000000	-0.09449800000000	0.00000000000000	22.87415200000000	0.00000000000000	0.00000000000000	4.83731100000000	0.00000000000000	
9.27997200000000	-58.52131500000000	829.40505499999995	54.12224900000000	0.12571200000000	0.00000000000000	0.08205800000000	-9.83896700000000	53.55688600000000	8.87595600000000	0.39002300000000	0.00000000000000	-0.09501300000000	0.00000000000000	22.71417200000000	0.00000000000000	0.00000000000000	5.31356700000000	0.00000000000000	
9.28164000000000	-58.64634500000000	826.60461199999997	53.79848300000000	0.12515300000000	0.00000000000000	0.08200200000000	-10.32273500000000	58.90524000000000	9.48753100000000	0.39173500000000	0.00000000000000	-0.09550800000000	0.00000000000000	22.55001500000000	0.00000000000000	0.00000000000000	5.74683600000000	0.00000000000000	
9.28330800000000	-58.77047500000000	823.62237900000002	53.44361800000000	0.12460500000000	0.00000000000000	0.08194200000000	-10.65665300000000	64.02302500000000	9.99957000000000	0.39340200000000	0.00000000000000	-0.09598200000000	0.00000000000000	22.38192900000000	0.00000000000000	0.00000000000000	6.13290700000000	0.00000000000000	
9.28497500000000	-58.89444600000000	820.45923600000003	53.05768100000000	0.12406700000000	0.00000000000000	0.08187700000000	-10.84120900000000	68.90405400000000	10.41119300000000	0.39502800000000	0.00000000000000	-0.09644000000000	0.00000000000000	22.21016600000000	0.00000000000000	0.00000000000000	6.47045300000000	0.00000000000000	
9.28663300000000	-59.01896800000000	817.11623399999996	52.64076500000000	0.12354100000000	0.00000000000000	0.08180600000000	-10.88262800000000	73.56397000000000	10.72605700000000	0.39661500000000	0.00000000000000	-0.09688200000000	0.00000000000000	22.03497400000000	0.00000000000000	0.00000000000000	6.76068000000000	0.00000000000000	
9.28830200000000	-59.14471900000000	813.59458800000004	52.19303400000000	0.12302600000000	0.00000000000000	0.08173100000000	-10.79155300000000	78.03605200000000	10.95137300000000	0.39816300000000	0.00000000000000	-0.09731000000000	0.00000000000000	21.85659900000000	0.00000000000000	0.00000000000000	7.00683300000000	0.00000000000000	
9.28996800000000	-59.27233600000000	809.89566200000002	51.71471800000000	0.12252300000000	0.00000000000000	0.08165100000000	-10.58159000000000	82.36629300000000	11.09680700000000	0.39967300000000	0.00000000000000	-0.09772500000000	0.00000000000000	21.67528400000000	0.00000000000000	0.00000000000000	7.21361800000000	0.00000000000000	
9.29163300000000	-59.40241600000000	806.02096800000004	51.20611600000000	0.12203000000000	0.00000000000000	0.08156600000000	-10.26787300000000	86.60828500000000	11.17337200000000	0.40114500000000	0.00000000000000	-0.09813000000000	0.00000000000000	21.49126800000000	0.00000000000000	0.00000000000000	7.38660200000000	0.00000000000000	
9.29330200000000	-59.53550600000000	801.97214599999995	50.66759300000000	0.12154900000000	0.00000000000000	0.08147500000000	-9.86574900000000	90.81835800000000	11.19240000000000	0.40257700000000	0.00000000000000	-0.09852400000000	0.00000000000000	21.30478300000000	0.00000000000000	0.00000000000000	7.53165200000000	0.00000000000000	
9.29497100000000	-59.67210200000000	797.75096499999995	50.09958100000000	0.12107900000000	0.00000000000000	0.08137900000000	-9.38967300000000	95.05132300000000	11.16466800000000	0.40396900000000	0.00000000000000	-0.09890800000000	0.00000000000000	21.11605500000000	0.00000000000000	0.00000000000000	7.65443600000000	0.00000000000000	
